HIERARCHY
ROOT Hips
{
	OFFSET -0.001795 -0.223333 0.028219
	CHANNELS 6 Xposition Yposition Zposition Zrotation Yrotation Xrotation 
	JOINT LeftUpLeg
	{
		OFFSET 0.069520 -0.091406 -0.006815
		CHANNELS 3 Zrotation Yrotation Xrotation
		JOINT LeftLeg
		{
			OFFSET 0.034277 -0.375199 -0.004496
			CHANNELS 3 Zrotation Yrotation Xrotation
			JOINT LeftFoot
			{
				OFFSET -0.013596 -0.397961 -0.043693
				CHANNELS 3 Zrotation Yrotation Xrotation
				JOINT LeftToe
				{
					OFFSET 0.026358 -0.055791 0.119288
					CHANNELS 3 Zrotation Yrotation Xrotation
					End Site
					{
						OFFSET 0.000000 0.000000 0.000000
					}
				}
			}
		}
	}
	JOINT RightUpLeg
	{
		OFFSET -0.067670 -0.090522 -0.004320
		CHANNELS 3 Zrotation Yrotation Xrotation
		JOINT RightLeg
		{
			OFFSET -0.038290 -0.382569 -0.008850
			CHANNELS 3 Zrotation Yrotation Xrotation
			JOINT RightFoot
			{
				OFFSET 0.015774 -0.398415 -0.042312
				CHANNELS 3 Zrotation Yrotation Xrotation
				JOINT RightToe
				{
					OFFSET -0.025372 -0.048144 0.123348
					CHANNELS 3 Zrotation Yrotation Xrotation
					End Site
					{
						OFFSET 0.000000 0.000000 0.000000
					}
				}
			}
		}
	}
	JOINT Spine
	{
		OFFSET -0.002533 0.108963 -0.026696
		CHANNELS 3 Zrotation Yrotation Xrotation
		JOINT Spine1
		{
			OFFSET 0.005487 0.135180 0.001092
			CHANNELS 3 Zrotation Yrotation Xrotation
			JOINT Spine2
			{
				OFFSET 0.001457 0.052922 0.025425
				CHANNELS 3 Zrotation Yrotation Xrotation
				JOINT Neck
				{
					OFFSET -0.002778 0.213870 -0.042857
					CHANNELS 3 Zrotation Yrotation Xrotation
					JOINT Head
					{
						OFFSET 0.005152 0.064970 0.051349
						CHANNELS 3 Zrotation Yrotation Xrotation
						End Site
						{
							OFFSET 0.000000 0.000000 0.000000
						}
					}
				}
				JOINT LeftShoulder
				{
					OFFSET 0.078845 0.121749 -0.034090
					CHANNELS 3 Zrotation Yrotation Xrotation
					JOINT LeftArm
					{
						OFFSET 0.090977 0.030469 -0.008868
						CHANNELS 3 Zrotation Yrotation Xrotation
						JOINT LeftForeArm
						{
							OFFSET 0.259612 -0.012772 -0.027456
							CHANNELS 3 Zrotation Yrotation Xrotation
							JOINT LeftHand
							{
								OFFSET 0.249234 0.008986 -0.001171
								CHANNELS 3 Zrotation Yrotation Xrotation
								End Site
								{
									OFFSET 0.000000 0.000000 0.000000
								}
							}
						}
					}
				}
				JOINT RightShoulder
				{
					OFFSET -0.081759 0.118833 -0.038615
					CHANNELS 3 Zrotation Yrotation Xrotation
					JOINT RightArm
					{
						OFFSET -0.096012 0.032551 -0.009143
						CHANNELS 3 Zrotation Yrotation Xrotation
						JOINT RightForeArm
						{
							OFFSET -0.253742 -0.013329 -0.021401
							CHANNELS 3 Zrotation Yrotation Xrotation
							JOINT RightHand
							{
								OFFSET -0.255298 0.007772 -0.005559
								CHANNELS 3 Zrotation Yrotation Xrotation
								End Site
								{
									OFFSET 0.000000 0.000000 0.000000
								}
							}
						}
					}
				}
			}
		}
	}
}
MOTION
Frames: 9
Frame Time: 0.050000
0.000000 0.945059 0.000000 0.100688 -0.589508 4.923513 -1.569884 0.319579 2.663699 1.487427 0.315498 -10.045564 -3.280458 -1.503246 10.642037 0.000000 0.000000 0.000000 0.781864 -0.046568 0.157488 -0.545623 -0.277443 -7.583736 6.411704 9.109764 9.530502 0.000000 0.000000 0.000000 4.562213 0.100549 -2.685466 -0.874215 0.371363 2.719126 -1.920589 1.527708 3.746272 3.542390 -0.328342 -20.539092 0.000000 0.000000 0.000000 -31.961751 -6.181418 0.191319 -24.815273 6.762267 -3.747065 9.619404 -14.285701 -0.661232 0.000000 0.000000 0.000000 26.218601 4.516299 0.820456 27.641812 -2.675221 -3.170560 -9.994702 20.289539 -0.886975 0.000000 0.000000 0.000000 
-0.000841 0.943565 0.002473 -0.051909 -1.022337 5.748643 -0.796079 0.267298 2.491512 0.393506 0.377425 -10.967276 -3.099900 -1.261029 10.616752 0.000000 0.000000 0.000000 0.630016 0.104718 -1.247265 0.048715 -0.254258 -6.446324 6.362711 9.464920 8.788642 0.000000 0.000000 0.000000 5.314749 0.112904 -3.012400 -1.412857 0.638977 3.553849 -2.687821 1.834485 2.760483 4.229331 -0.377975 -23.002847 0.000000 0.000000 0.000000 -30.600149 -6.765515 0.516485 -26.016347 7.072138 -3.932417 11.660753 -12.498018 -0.797232 0.000000 0.000000 0.000000 26.366549 2.889744 -0.149456 28.071171 -3.176046 -3.285825 -11.030622 21.247155 -1.096262 0.000000 0.000000 0.000000 
-0.001705 0.942692 0.004978 -0.065888 -0.818538 6.086163 -0.271889 0.229787 2.360826 -0.375552 0.390553 -11.118065 -3.182433 -1.447553 10.471239 0.000000 0.000000 0.000000 0.568294 0.135426 -1.523175 0.326149 -0.261112 -6.275803 6.177648 9.346644 8.418418 0.000000 0.000000 0.000000 5.842857 0.119845 -3.186974 -1.768213 0.828508 1.030988 -2.688393 1.636279 5.409556 4.166605 -0.420168 -22.955839 0.000000 0.000000 0.000000 -29.271174 -7.058766 1.009372 -26.725431 7.897182 -4.353995 10.936815 -12.702718 -0.725679 0.000000 0.000000 0.000000 25.730082 4.073364 0.658521 28.466673 -4.044555 -3.619694 -11.508809 22.093647 -1.236926 0.000000 0.000000 0.000000 
-0.002932 0.942569 0.007572 0.011884 -0.872566 6.461335 -0.184060 0.268465 2.813513 -0.566082 0.431340 -12.337561 -3.323668 -1.454761 11.032434 0.000000 0.000000 0.000000 0.452024 0.162911 -1.763352 0.512154 -0.269781 -6.284461 6.182456 9.392100 8.364142 0.000000 0.000000 0.000000 5.683911 0.129486 -3.378709 -2.024608 0.949862 1.753366 -2.317675 1.468272 4.219687 4.192869 -0.354543 -23.746691 0.000000 0.000000 0.000000 -30.562787 -6.830780 0.833677 -25.412344 8.956787 -4.249000 11.643065 -11.760456 -0.735284 0.000000 0.000000 0.000000 25.725957 4.118407 0.548132 27.383630 -5.582645 -3.658328 -11.687014 22.874822 -1.339668 0.000000 0.000000 0.000000 
-0.004278 0.942887 0.010060 0.031200 -0.540635 6.535928 0.010616 0.294540 3.215356 -0.720615 0.445074 -12.954258 -3.594652 -1.704175 11.430966 0.000000 0.000000 0.000000 0.533064 0.151473 -1.666022 0.548030 -0.271799 -6.259268 6.055181 9.151636 8.367383 0.000000 0.000000 0.000000 5.692677 0.150520 -3.637839 -1.832141 0.851075 2.066125 -2.653845 1.192779 3.618836 4.415706 -0.582447 -22.623902 0.000000 0.000000 0.000000 -30.518178 -6.805526 0.795513 -24.799233 9.575557 -4.207606 11.256769 -11.645072 -0.690056 0.000000 0.000000 0.000000 25.601471 4.061219 0.486227 27.299970 -5.968541 -3.680558 -11.523846 22.932708 -1.316733 0.000000 0.000000 0.000000 
-0.005524 0.942818 0.012518 0.105586 -0.558050 6.546413 -0.219857 0.323946 3.386671 -0.312721 0.448675 -12.990041 -3.577294 -1.687211 11.403651 0.000000 0.000000 0.000000 0.287838 0.147774 -1.565592 0.985618 -0.289384 -6.167207 6.060891 9.207630 8.303467 0.000000 0.000000 0.000000 5.455137 0.149330 -3.638648 -1.982693 0.923195 2.587533 -2.330171 0.519625 3.407587 4.128099 -0.474922 -22.990089 0.000000 0.000000 0.000000 -30.587506 -6.501324 0.905204 -24.738284 9.505575 -4.236369 11.655369 -11.211593 -0.688700 0.000000 0.000000 0.000000 25.010050 4.630960 0.585558 27.594298 -6.027597 -3.657600 -11.637511 23.069466 -1.376393 0.000000 0.000000 0.000000 
-0.006683 0.942662 0.015117 0.243459 -0.741544 6.695111 -0.286785 0.317769 3.273478 -0.367888 0.443225 -12.745447 -3.471075 -1.572260 11.306654 0.000000 0.000000 0.000000 0.421429 0.128063 -1.419183 0.572973 -0.278248 -6.442513 6.112100 9.360518 8.208820 0.000000 0.000000 0.000000 5.359394 0.146040 -3.627206 -2.077621 0.971736 2.843449 -2.456097 0.524187 3.110101 4.254604 -0.549662 -22.895951 0.000000 0.000000 0.000000 -30.508163 -6.489794 0.911072 -24.573097 9.857032 -4.250306 11.337822 -10.988676 -0.644275 0.000000 0.000000 0.000000 24.809673 4.516546 0.494069 27.489097 -6.327009 -3.674419 -10.853408 23.036593 -1.233982 0.000000 0.000000 0.000000 
-0.007950 0.942290 0.018140 0.301103 -0.699604 6.856893 -0.217726 0.301169 3.140348 -0.443759 0.433436 -12.472942 -3.437516 -1.602071 11.100080 0.000000 0.000000 0.000000 0.706968 0.118322 -1.410388 0.102430 -0.256091 -6.407290 6.012510 9.350446 7.912845 0.000000 0.000000 0.000000 5.513846 0.156254 -3.776023 -2.186772 1.025217 3.207325 -2.675908 0.391103 3.025250 4.385012 -0.592268 -23.165250 0.000000 0.000000 0.000000 -30.528411 -6.557252 0.980225 -24.853156 9.940004 -4.319782 11.404983 -10.810536 -0.638029 0.000000 0.000000 0.000000 25.067469 4.696033 0.565391 27.614977 -6.506977 -3.715443 -10.019641 22.705018 -1.065638 0.000000 0.000000 0.000000 
-0.009642 0.942100 0.021823 0.347782 -0.682345 6.889638 -0.114047 0.306101 3.256623 -0.513855 0.427990 -12.308842 -3.423982 -1.625664 10.990427 0.000000 0.000000 0.000000 1.051092 0.059613 -0.969710 -0.404990 -0.250775 -6.821565 6.006376 9.381200 7.845828 0.000000 0.000000 0.000000 5.550553 0.155628 -3.775962 -2.174810 1.018543 3.612842 -2.913123 0.346919 2.876389 4.768484 -0.779789 -23.187329 0.000000 0.000000 0.000000 -30.645566 -6.718338 1.066252 -25.151111 10.238913 -4.419062 11.599224 -10.710577 -0.649543 0.000000 0.000000 0.000000 25.364477 5.000299 0.742709 27.908978 -7.030855 -3.850645 -8.872114 22.644801 -0.857297 0.000000 0.000000 0.000000 
